<svg width="331" height="207" viewBox="0 0 331 207" fill="none" xmlns="http://www.w3.org/2000/svg">
<g clip-path="url(#clip0_206_4916)">
<path d="M81.0144 60.1494C89.7906 60.1494 96.9051 53.0202 96.9051 44.2258C96.9051 35.4315 89.7906 28.3022 81.0144 28.3022C72.2382 28.3022 65.1237 35.4315 65.1237 44.2258C65.1237 53.0202 72.2382 60.1494 81.0144 60.1494Z" fill="white"/>
<path d="M81.0144 60.5528C77.7916 60.5544 74.6407 59.5982 71.9602 57.8051C69.2797 56.0121 67.1901 53.4627 65.9557 50.4795C64.7213 47.4963 64.3975 44.2132 65.0252 41.0456C65.653 37.8779 67.2041 34.968 69.4825 32.6838C71.7608 30.3997 74.6639 28.8439 77.8247 28.2132C80.9855 27.5826 84.262 27.9055 87.2396 29.141C90.2173 30.3765 92.7624 32.4691 94.5531 35.1543C96.3438 37.8394 97.2995 40.9964 97.2995 44.2259C97.2953 48.5533 95.5784 52.7025 92.5255 55.7632C89.4726 58.8239 85.3329 60.5464 81.0144 60.5528ZM81.0144 28.7137C77.9504 28.7121 74.9548 29.6212 72.4066 31.3259C69.8583 33.0307 67.8719 35.4546 66.6987 38.2909C65.5254 41.1271 65.218 44.2484 65.8154 47.2598C66.4127 50.2712 67.888 53.0374 70.0545 55.2084C72.2211 57.3794 74.9816 58.8578 77.9867 59.4564C80.9919 60.055 84.1067 59.7469 86.9371 58.5712C89.7676 57.3956 92.1864 55.405 93.8877 52.8515C95.5889 50.298 96.4961 47.2962 96.4945 44.2259C96.4882 40.1137 94.8552 36.1719 91.9535 33.2642C89.0518 30.3564 85.118 28.7201 81.0144 28.7137Z" fill="#D1D3D4"/>
<path d="M192.298 77.186L244.953 95.6668L217.301 102.774L184.908 86.7289L192.298 77.186Z" fill="#231F20"/>
<path d="M217.325 103.128C217.275 103.14 217.222 103.14 217.172 103.128L184.779 87.0839C184.731 87.0603 184.689 87.0264 184.655 86.9846C184.622 86.9427 184.598 86.894 184.586 86.8419C184.574 86.7904 184.574 86.7371 184.585 86.6855C184.596 86.634 184.618 86.5855 184.65 86.5434L192.016 76.9602C192.063 76.9015 192.126 76.8585 192.198 76.8369C192.27 76.8153 192.347 76.8161 192.418 76.8392L245.073 95.3199C245.145 95.3459 245.207 95.3945 245.249 95.4585C245.291 95.5225 245.311 95.5984 245.307 95.6749C245.304 95.7503 245.276 95.8226 245.228 95.8808C245.18 95.9391 245.114 95.98 245.041 95.9975L217.389 103.112L217.325 103.128ZM185.455 86.6402L217.325 102.394L243.713 95.6103L192.426 77.6055L185.455 86.6402Z" fill="#231F20"/>
<path d="M130.61 138.67C130.61 138.67 102.693 147.148 88.7907 138.67C88.7907 138.67 99.4167 151.964 113.874 150.48C128.332 148.996 130.61 138.67 130.61 138.67Z" fill="#D1D3D4"/>
<path d="M140.343 131.321C140.343 131.321 119.067 151.98 94.9087 146.543C61.3644 139.041 35.5239 99.0709 57.9834 48.9365C57.9834 48.9365 34.6384 82.9133 46.7134 120.811C63.2642 172.687 103.24 170.542 143.941 159.95" fill="#D1D3D4"/>
<path d="M198.19 37.9903C198.19 37.9903 192.112 65.7154 192.298 77.1862C192.298 77.7509 194.109 79.1625 194.149 79.6062C195.027 89.8428 162.078 81.2195 162.078 81.2195C162.078 81.2195 160.854 59.5121 163.31 51.7439C165.765 43.9757 168.397 42.2737 168.397 42.2737C168.397 42.2737 190.438 33.5939 194.31 34.812C198.182 36.0301 198.19 37.9903 198.19 37.9903Z" fill="#554AF0"/>
<path d="M186.365 49.8238L228.281 27.7937L224.94 17.0005L180.118 39.7646L186.365 49.8238Z" fill="#554AF0"/>
<path d="M126.626 138.985C126.626 138.985 126.006 143.478 129.596 152.505C133.186 161.531 136.72 164.355 136.72 164.355L149.488 162.741L136.97 131.281L126.626 138.985Z" fill="#231F20"/>
<path d="M136.72 164.709C136.642 164.71 136.565 164.684 136.503 164.637C136.358 164.516 132.848 161.644 129.258 152.634C125.668 143.623 126.239 139.122 126.263 138.92C126.27 138.873 126.287 138.828 126.312 138.788C126.337 138.748 126.37 138.713 126.408 138.686L136.753 131.023C136.796 130.99 136.846 130.968 136.899 130.958C136.952 130.949 137.007 130.951 137.058 130.967C137.111 130.98 137.16 131.006 137.201 131.043C137.242 131.079 137.273 131.125 137.292 131.176L149.81 162.636C149.833 162.685 149.845 162.739 149.845 162.794C149.845 162.848 149.833 162.902 149.81 162.951C149.782 162.997 149.745 163.036 149.7 163.065C149.656 163.094 149.605 163.113 149.552 163.12L136.785 164.693L136.72 164.709ZM126.964 139.178C126.899 139.985 126.763 144.438 129.926 152.367C133.09 160.297 136.221 163.427 136.833 163.983L148.989 162.491L136.825 131.878L126.964 139.178Z" fill="#231F20"/>
<path d="M190.164 159.95C190.164 159.95 186.606 170.219 175.224 179.851C163.841 189.482 135.175 195.177 135.175 195.177L150.888 162.257L190.164 159.95Z" fill="white"/>
<path d="M135.215 195.54C135.154 195.54 135.095 195.527 135.04 195.5C134.986 195.474 134.938 195.435 134.901 195.387C134.854 195.327 134.825 195.255 134.817 195.18C134.808 195.104 134.821 195.028 134.853 194.959L150.51 162.047C150.541 161.983 150.589 161.928 150.649 161.889C150.708 161.849 150.777 161.826 150.848 161.821L190.124 159.547C190.191 159.541 190.258 159.553 190.318 159.582C190.379 159.61 190.431 159.653 190.47 159.708C190.51 159.76 190.536 159.821 190.547 159.886C190.558 159.95 190.554 160.017 190.535 160.079C190.494 160.184 186.807 170.566 175.465 180.157C164.123 189.748 135.529 195.484 135.215 195.54ZM151.194 162.604L135.899 194.58C140.592 193.58 164.879 188.127 174.974 179.536C184.634 171.372 188.659 162.66 189.569 160.378L151.194 162.604Z" fill="#231F20"/>
<path d="M168.429 105.331C168.429 105.331 158.818 101.91 143.941 102.773C129.065 103.637 104.359 117.713 104.359 117.713L138.371 130.765L168.429 105.331Z" fill="white"/>
<path d="M138.371 131.168C138.323 131.176 138.274 131.176 138.226 131.168L104.214 118.1C104.144 118.071 104.083 118.024 104.038 117.963C103.992 117.901 103.964 117.829 103.957 117.753C103.951 117.678 103.967 117.602 104.003 117.535C104.039 117.468 104.092 117.412 104.158 117.374C104.408 117.229 129.113 103.233 143.917 102.378C158.721 101.523 168.47 104.919 168.558 104.952C168.626 104.974 168.687 105.015 168.734 105.069C168.782 105.124 168.813 105.19 168.826 105.26C168.84 105.331 168.834 105.404 168.809 105.472C168.785 105.54 168.742 105.599 168.687 105.645L138.628 131.079C138.554 131.135 138.464 131.166 138.371 131.168ZM105.309 117.648L138.314 130.297L167.632 105.492C165.217 104.758 156.362 102.451 143.99 103.177C130.788 103.943 109.552 115.309 105.309 117.648Z" fill="#231F20"/>
<path d="M130.635 128.159C143.136 115.882 163.301 103.241 187.492 93.5696C224.151 78.9205 251.304 91.561 260.296 96.885C261.273 97.4638 262.032 98.351 262.453 99.4076C262.874 100.464 262.933 101.631 262.622 102.725C259.757 112.792 248.728 140.679 212.068 155.328C187.878 165.008 164.573 169.735 147.073 169.445C147.073 169.445 141.438 164.451 135.698 150.085C129.958 135.718 130.635 128.159 130.635 128.159Z" fill="white"/>
<path d="M148.578 169.864H147.065C146.967 169.865 146.873 169.831 146.799 169.767C146.566 169.557 141.019 164.54 135.328 150.23C129.636 135.919 130.208 128.45 130.232 128.135C130.242 128.04 130.285 127.952 130.353 127.885C143.329 115.14 164.098 102.499 187.347 93.1984C223.741 78.6784 250.628 90.6897 260.505 96.538C261.557 97.1627 262.373 98.1187 262.826 99.2569C263.279 100.395 263.343 101.651 263.009 102.83C259.861 113.889 248.615 141.163 212.221 155.707C189.617 164.742 166.538 169.864 148.578 169.864ZM147.234 169.057C165.25 169.299 188.844 164.217 211.923 154.965C247.987 140.55 259.121 113.559 262.236 102.62C262.521 101.612 262.465 100.538 262.078 99.5652C261.691 98.5922 260.994 97.7746 260.095 97.2398C250.322 91.456 223.701 79.5415 187.645 93.9567C164.565 103.177 143.941 115.737 131.029 128.345C130.981 129.45 130.884 136.879 136.076 149.923C141.269 162.967 146.437 168.275 147.234 169.049V169.057Z" fill="#231F20"/>
<path d="M262.622 102.725C258.866 115.171 252.032 126.464 242.755 135.556C242.755 135.556 234.938 130.2 228.144 113.115C221.35 96.0298 223.314 86.7612 223.314 86.7612C236.289 86.9563 249.003 90.439 260.272 96.8849C261.254 97.4602 262.017 98.3457 262.443 99.4027C262.868 100.46 262.931 101.628 262.622 102.725Z" fill="white"/>
<path d="M242.755 135.96C242.674 135.958 242.596 135.933 242.53 135.887C242.208 135.661 234.536 130.241 227.766 113.301C220.996 96.3606 222.863 87.092 222.936 86.6806C222.956 86.5902 223.006 86.5091 223.077 86.4506C223.149 86.392 223.238 86.3594 223.33 86.3579C236.377 86.5411 249.164 90.0441 260.489 96.538C261.541 97.1628 262.357 98.1188 262.81 99.2569C263.263 100.395 263.327 101.651 262.993 102.83C259.253 115.347 252.403 126.707 243.085 135.847C243.042 135.889 242.99 135.921 242.933 135.94C242.876 135.96 242.815 135.966 242.755 135.96ZM223.676 87.1726C223.419 88.9554 222.549 97.9739 228.506 112.986C234.463 127.998 241.298 133.959 242.715 135.04C251.829 126.048 258.54 114.902 262.228 102.628C262.513 101.62 262.457 100.546 262.07 99.5733C261.683 98.6003 260.986 97.7827 260.087 97.2479C248.988 90.8764 236.465 87.4113 223.676 87.1726Z" fill="#231F20"/>
<path d="M136.229 126.433C136.172 126.433 136.115 126.42 136.062 126.397C136.009 126.373 135.962 126.339 135.923 126.296C135.889 126.256 135.863 126.21 135.846 126.159C135.83 126.109 135.824 126.056 135.829 126.004C135.833 125.951 135.848 125.9 135.873 125.853C135.897 125.806 135.931 125.765 135.972 125.731C145.019 118.314 154.509 111.456 164.388 105.194C164.479 105.139 164.588 105.122 164.692 105.146C164.796 105.17 164.886 105.233 164.944 105.323C164.972 105.367 164.99 105.417 164.999 105.468C165.008 105.52 165.006 105.573 164.994 105.624C164.982 105.675 164.96 105.723 164.929 105.766C164.898 105.808 164.86 105.844 164.815 105.871C154.972 112.115 145.512 118.946 136.487 126.328C136.417 126.394 136.325 126.431 136.229 126.433Z" fill="white"/>
<path d="M167.109 168.348C167.008 168.348 166.91 168.311 166.835 168.243C166.723 168.138 155.847 157.756 150.446 144.172C145.044 130.588 145.801 115.551 145.809 115.406C145.81 115.352 145.822 115.299 145.844 115.25C145.866 115.2 145.898 115.156 145.938 115.12C145.978 115.084 146.025 115.056 146.077 115.039C146.128 115.021 146.182 115.014 146.235 115.019C146.342 115.027 146.44 115.076 146.511 115.156C146.581 115.236 146.618 115.34 146.614 115.446C146.614 115.592 145.865 130.475 151.194 143.873C156.523 157.272 167.294 167.549 167.391 167.654C167.429 167.691 167.459 167.736 167.479 167.785C167.499 167.834 167.51 167.887 167.51 167.94C167.51 167.994 167.499 168.046 167.479 168.095C167.459 168.145 167.429 168.189 167.391 168.227C167.316 168.302 167.215 168.345 167.109 168.348Z" fill="#231F20"/>
<path d="M259.185 95.8846C259.185 95.8846 274.657 91.8513 275.575 94.1584C276.493 96.4654 262.502 104.209 262.502 104.209" fill="#231F20"/>
<path d="M262.502 104.564C262.425 104.562 262.35 104.535 262.29 104.487C262.23 104.439 262.187 104.372 262.168 104.298C262.149 104.223 262.154 104.144 262.184 104.073C262.214 104.001 262.266 103.942 262.333 103.903C268.934 100.241 275.752 95.5297 275.213 94.2874C274.673 93.0451 266.535 94.3277 259.241 96.2315C259.196 96.2431 259.149 96.2457 259.102 96.239C259.056 96.2323 259.011 96.2166 258.971 96.1926C258.93 96.1686 258.895 96.1369 258.867 96.0993C258.839 96.0617 258.818 96.0189 258.807 95.9733C258.795 95.9278 258.792 95.8804 258.799 95.8338C258.806 95.7873 258.822 95.7425 258.845 95.7021C258.869 95.6616 258.901 95.6263 258.939 95.5981C258.976 95.5699 259.019 95.5494 259.064 95.5377C262.767 94.5778 274.915 91.6254 275.873 94.0293C276.831 96.4331 265.987 102.669 262.638 104.516C262.596 104.54 262.55 104.556 262.502 104.564Z" fill="#231F20"/>
<path d="M260.562 105.67C258.443 102.917 257.132 99.6257 256.778 96.1671C256.756 95.6225 256.939 95.0895 257.291 94.674C257.643 94.2585 258.138 93.991 258.678 93.9246C258.908 93.8717 259.147 93.8662 259.379 93.9084C259.612 93.9506 259.833 94.0396 260.03 94.1701C260.228 94.3005 260.396 94.4697 260.526 94.6674C260.656 94.8651 260.745 95.0871 260.787 95.3201C261.087 98.2984 262.204 101.135 264.015 103.516C264.146 103.713 264.236 103.935 264.279 104.168C264.322 104.401 264.317 104.641 264.264 104.872C264.211 105.103 264.112 105.321 263.972 105.512C263.832 105.703 263.655 105.864 263.452 105.984C263.017 106.302 262.48 106.446 261.946 106.388C261.411 106.33 260.918 106.074 260.562 105.67Z" fill="white"/>
<path d="M262.164 106.807C261.795 106.813 261.431 106.735 261.097 106.579C260.764 106.422 260.47 106.191 260.24 105.903C258.086 103.095 256.749 99.7451 256.376 96.2234C256.338 95.572 256.551 94.931 256.97 94.4317C257.389 93.9323 257.983 93.6123 258.63 93.5372C258.949 93.4872 259.276 93.5022 259.59 93.5812C259.904 93.6602 260.199 93.8016 260.457 93.997C260.661 94.1519 260.831 94.3471 260.957 94.5704C261.083 94.7938 261.162 95.0406 261.189 95.2957C261.494 98.2032 262.594 100.97 264.369 103.29C264.525 103.493 264.637 103.726 264.7 103.974C264.762 104.222 264.773 104.481 264.731 104.734C264.68 105.057 264.564 105.367 264.39 105.645C264.215 105.922 263.986 106.161 263.717 106.347C263.261 106.661 262.717 106.822 262.164 106.807ZM259 94.2955H258.734C258.297 94.3477 257.895 94.5621 257.607 94.8965C257.32 95.231 257.167 95.6612 257.181 96.1024C257.536 99.484 258.815 102.702 260.876 105.403C261.17 105.731 261.576 105.937 262.014 105.98C262.451 106.024 262.89 105.901 263.242 105.637C263.423 105.517 263.577 105.361 263.696 105.18C263.815 104.998 263.896 104.794 263.935 104.58C263.956 104.439 263.949 104.295 263.914 104.157C263.88 104.019 263.818 103.888 263.733 103.774C261.866 101.334 260.708 98.4256 260.384 95.3683C260.368 95.2217 260.322 95.0799 260.25 94.9511C260.178 94.8223 260.082 94.7091 259.966 94.6181C259.688 94.4078 259.348 94.297 259 94.3035V94.2955Z" fill="#231F20"/>
<path d="M170.305 161.507C170.198 161.513 170.093 161.477 170.013 161.406C169.933 161.335 169.885 161.235 169.878 161.128C169.872 161.021 169.908 160.915 169.979 160.835C170.05 160.755 170.15 160.706 170.257 160.7C170.619 160.66 206.522 156.344 235.107 133.136C235.19 133.069 235.295 133.038 235.401 133.048C235.506 133.059 235.603 133.111 235.671 133.193C235.736 133.277 235.767 133.384 235.756 133.49C235.746 133.597 235.695 133.695 235.615 133.765C206.844 157.159 170.716 161.458 170.353 161.499L170.305 161.507Z" fill="#D1D3D4"/>
<path d="M186.993 32.9806C187.707 32.6774 188.282 32.1159 188.603 31.4076C189.931 29.3574 190.651 26.9712 190.68 24.5268C190.609 20.9462 189.148 17.5341 186.608 15.0146C184.068 12.495 180.649 11.0662 177.075 11.0312L179.925 13.3545C177.483 13.2582 175.054 13.7647 172.853 14.8295C170.652 15.8943 168.746 17.4847 167.302 19.4609C168.267 19.1786 169.298 19.2269 170.233 19.598C168.776 19.9779 167.343 20.4439 165.942 20.9936C165.72 21.0543 165.522 21.1842 165.378 21.3647C165.261 21.6178 165.244 21.906 165.33 22.1713C166.36 26.971 169.951 31.3996 174.741 32.416C175.546 32.5854 176.351 32.658 177.212 32.7628C179.039 32.9968 180.842 33.384 182.686 33.4808C183.843 33.5632 185.006 33.479 186.139 33.2307C186.429 33.1652 186.714 33.0816 186.993 32.9806Z" fill="white"/>
<path d="M183.515 33.8923H182.613C181.41 33.8066 180.211 33.6585 179.023 33.4487C178.387 33.3519 177.751 33.2551 177.115 33.1744L176.52 33.1018C175.892 33.0211 175.248 32.9485 174.612 32.8114C169.951 31.8273 166.063 27.6003 164.952 22.3247C164.891 22.1438 164.868 21.9522 164.885 21.7621C164.902 21.5719 164.957 21.3872 165.048 21.2196C165.231 20.9748 165.488 20.7964 165.781 20.7114C166.731 20.3323 167.697 20.0015 168.671 19.7031C168.235 19.6907 167.8 19.7479 167.383 19.8725C167.31 19.8938 167.232 19.8921 167.16 19.8675C167.088 19.843 167.025 19.7969 166.98 19.7353C166.937 19.6711 166.913 19.5952 166.913 19.5175C166.913 19.4399 166.937 19.364 166.98 19.2997C168.358 17.424 170.143 15.8855 172.199 14.7999C174.256 13.7144 176.531 13.1099 178.854 13.0319L176.817 11.3702C176.76 11.3209 176.718 11.2553 176.698 11.1819C176.678 11.1085 176.68 11.0308 176.705 10.9588C176.732 10.8873 176.781 10.8259 176.844 10.7827C176.908 10.7395 176.982 10.7165 177.059 10.7168C180.722 10.7533 184.228 12.2135 186.838 14.7898C189.448 17.366 190.958 20.857 191.05 24.5269C191.032 27.0516 190.291 29.518 188.917 31.6337C188.556 32.4116 187.919 33.027 187.129 33.3599C186.832 33.4807 186.525 33.5752 186.212 33.6423C185.326 33.8313 184.421 33.9152 183.515 33.8923ZM168.558 18.8803C169.173 18.8823 169.782 18.9999 170.353 19.2271C170.425 19.2581 170.486 19.3101 170.528 19.3763C170.569 19.4426 170.59 19.5199 170.587 19.5982C170.58 19.6746 170.55 19.7471 170.501 19.8062C170.452 19.8652 170.387 19.908 170.313 19.9289C168.866 20.3024 167.444 20.7658 166.055 21.3164C165.963 21.3193 165.873 21.3477 165.796 21.3984C165.719 21.449 165.658 21.5201 165.619 21.6035C165.58 21.687 165.564 21.7797 165.574 21.8714C165.585 21.9631 165.62 22.0502 165.676 22.1231C166.755 27.1567 170.418 31.1577 174.797 32.0854C175.401 32.2145 176.029 32.2871 176.632 32.3597L177.244 32.4323C177.88 32.5129 178.524 32.6178 179.168 32.7146C180.332 32.9208 181.507 33.0662 182.686 33.1502C183.808 33.2349 184.937 33.1506 186.035 32.9001C186.309 32.8391 186.579 32.7555 186.84 32.6501C187.481 32.3821 187.994 31.8764 188.273 31.2384C189.574 29.2402 190.283 26.9129 190.317 24.5269C190.248 21.2338 188.972 18.0813 186.731 15.6711C184.491 13.2608 181.443 11.7614 178.17 11.4589L180.142 13.0723C180.201 13.1222 180.244 13.1892 180.264 13.2642C180.284 13.3392 180.281 13.4187 180.255 13.4917C180.231 13.5669 180.182 13.6313 180.116 13.674C180.05 13.7167 179.971 13.735 179.893 13.7257C177.672 13.6484 175.463 14.0764 173.432 14.9776C171.4 15.8787 169.599 17.2296 168.164 18.9287L168.558 18.8803Z" fill="#231F20"/>
<path d="M177.18 40.2246C177.18 40.2246 177.325 48.6623 181.285 48.9285C185.246 49.1947 185.31 41.4669 185.31 41.4669" fill="#231F20"/>
<path d="M181.478 49.2915H181.261C177.019 49.0092 176.825 40.5956 176.817 40.2407C176.81 40.189 176.813 40.1363 176.828 40.0861C176.842 40.0359 176.867 39.9895 176.901 39.9499C176.935 39.9103 176.977 39.8785 177.025 39.8568C177.072 39.835 177.124 39.8237 177.176 39.8237C177.228 39.8237 177.279 39.835 177.327 39.8568C177.374 39.8785 177.416 39.9103 177.45 39.9499C177.484 39.9895 177.509 40.0359 177.524 40.0861C177.538 40.1363 177.542 40.189 177.534 40.2407C177.534 40.3214 177.719 48.3477 181.309 48.5897C181.621 48.6183 181.936 48.5782 182.23 48.4723C182.525 48.3664 182.793 48.1972 183.016 47.9766C184.9 46.2342 184.988 41.5233 184.988 41.4749C184.994 41.3835 185.034 41.2974 185.099 41.2334C185.164 41.1693 185.251 41.1318 185.342 41.128C185.436 41.128 185.526 41.1654 185.593 41.232C185.659 41.2985 185.697 41.3888 185.697 41.483C185.697 41.6927 185.608 46.5488 183.499 48.501C182.952 49.0152 182.228 49.2983 181.478 49.2915Z" fill="#231F20"/>
<path d="M184.972 36.1428L185.342 41.4668C185.342 41.4668 184.996 44.4676 181.704 43.7658C180.734 43.5495 179.825 43.1195 179.043 42.5069C178.26 41.8943 177.624 41.1146 177.18 40.2245C177.18 40.2245 176.375 27.4792 176.077 24.0912C178.442 23.8084 180.721 23.0306 182.766 21.8083C183.07 21.575 183.403 21.3824 183.757 21.2356C184.417 21.1388 184.336 21.5099 184.626 22.0423C185.155 23.0611 186.003 23.8775 187.041 24.3655C187.174 24.4095 187.291 24.4907 187.379 24.5994C187.429 24.6882 187.457 24.7879 187.46 24.8898C187.798 27.9309 188.418 30.9559 187.983 34.0132C187.629 36.6268 184.972 36.1428 184.972 36.1428Z" fill="white"/>
<path d="M182.646 44.2419C182.304 44.2425 181.964 44.2046 181.631 44.1289C180.603 43.9056 179.637 43.4523 178.808 42.8027C177.979 42.1532 177.306 41.3243 176.842 40.3779C176.834 40.3352 176.834 40.2916 176.842 40.2489C176.842 40.1198 176.037 27.4713 175.747 24.1155C175.74 24.0161 175.772 23.9179 175.835 23.8413C175.866 23.8046 175.904 23.7748 175.947 23.754C175.99 23.7331 176.037 23.7216 176.085 23.7203C178.397 23.4402 180.624 22.6762 182.621 21.4777L182.895 21.3003C183.129 21.0989 183.404 20.9503 183.7 20.8647C183.819 20.8337 183.942 20.8273 184.063 20.8457C184.184 20.8642 184.301 20.9072 184.405 20.9722C184.508 21.0371 184.598 21.1225 184.668 21.2233C184.738 21.3241 184.787 21.4381 184.811 21.5584C184.85 21.6751 184.898 21.7885 184.956 21.8972C185.44 22.846 186.228 23.6044 187.194 24.051C187.395 24.1238 187.569 24.256 187.693 24.4301C187.77 24.5658 187.814 24.7178 187.822 24.8738C187.894 25.5272 187.983 26.1806 188.063 26.8259C188.492 29.2212 188.587 31.6645 188.345 34.0859C188.311 34.4554 188.202 34.8138 188.023 35.1387C187.844 35.4636 187.6 35.7478 187.307 35.9735C186.731 36.3517 186.054 36.5432 185.367 36.5221L185.705 41.4105C185.653 41.855 185.514 42.285 185.296 42.6754C185.078 43.0659 184.784 43.4091 184.433 43.6853C183.912 44.0579 183.285 44.253 182.646 44.2419ZM177.542 40.1359C177.969 40.9578 178.57 41.6765 179.303 42.2421C180.035 42.8077 180.882 43.2066 181.784 43.411C182.126 43.5351 182.492 43.58 182.854 43.5425C183.216 43.505 183.565 43.386 183.875 43.1944C184.184 43.0028 184.447 42.7436 184.642 42.4361C184.838 42.1285 184.962 41.7807 185.004 41.4185L184.634 36.1752C184.629 36.1202 184.637 36.0649 184.657 36.0132C184.676 35.9616 184.707 35.915 184.747 35.8767C184.788 35.838 184.838 35.8092 184.893 35.7924C184.947 35.7757 185.004 35.7714 185.061 35.7799C185.698 35.8746 186.348 35.7403 186.896 35.4008C187.109 35.2312 187.285 35.02 187.413 34.7801C187.542 34.5402 187.621 34.2766 187.645 34.0053C187.865 31.6504 187.77 29.2766 187.363 26.9469C187.274 26.2935 187.194 25.6401 187.121 24.9787C187.121 24.9787 187.121 24.8657 187.121 24.8415L186.952 24.7528C185.82 24.2421 184.893 23.364 184.32 22.2602C184.251 22.1265 184.189 21.9892 184.135 21.8488C184.107 21.7652 184.072 21.6843 184.03 21.6068C183.963 21.5997 183.896 21.5997 183.829 21.6068C183.637 21.6851 183.458 21.7911 183.298 21.9214C183.169 22.0021 183.056 22.0908 182.96 22.1392C180.982 23.3159 178.795 24.0941 176.52 24.4301C176.761 28.0924 177.478 39.1357 177.542 40.1359Z" fill="#231F20"/>
<path d="M185.125 38.7647C183.819 38.8684 182.523 38.4672 181.503 37.6434C181.085 37.3014 180.746 36.8725 180.51 36.3864C180.273 35.9004 180.145 35.3687 180.134 34.8281C181.612 35.6575 183.271 36.1091 184.964 36.143L185.125 38.7647Z" fill="#231F20"/>
<path d="M184.723 39.1357C183.452 39.161 182.216 38.7224 181.245 37.9015C180.788 37.5241 180.419 37.0514 180.163 36.5164C179.908 35.9815 179.771 35.3971 179.764 34.8039C179.77 34.7435 179.791 34.6857 179.825 34.6351C179.859 34.5846 179.904 34.5429 179.957 34.5135C180.01 34.4838 180.069 34.4683 180.13 34.4683C180.191 34.4683 180.25 34.4838 180.303 34.5135C181.724 35.325 183.322 35.7738 184.956 35.8203C185.049 35.82 185.138 35.8546 185.207 35.9174C185.276 35.9801 185.318 36.0664 185.326 36.1591L185.463 38.7727C185.47 38.8635 185.441 38.9532 185.382 39.0227C185.323 39.0921 185.24 39.1356 185.149 39.1438C185.007 39.1534 184.864 39.1507 184.723 39.1357ZM180.537 35.4412C180.724 36.1925 181.137 36.8681 181.72 37.3772C182.568 38.0769 183.64 38.4463 184.739 38.4178L184.634 36.506C183.21 36.4379 181.815 36.0754 180.537 35.4412Z" fill="#231F20"/>
<path d="M184.159 26.6968C184.159 26.6968 186.027 29.1168 185.648 29.6169C185.27 30.117 184.119 29.867 184.119 29.867" fill="white"/>
<path d="M184.706 30.2786C184.487 30.2807 184.269 30.2591 184.054 30.2141C184.008 30.2056 183.965 30.1882 183.925 30.1627C183.886 30.1372 183.852 30.1043 183.826 30.0657C183.799 30.0271 183.78 29.9837 183.771 29.9379C183.761 29.892 183.76 29.8447 183.769 29.7987C183.777 29.7526 183.794 29.7086 183.82 29.6693C183.845 29.63 183.878 29.596 183.917 29.5694C183.955 29.5429 183.999 29.5241 184.044 29.5143C184.09 29.5045 184.137 29.5038 184.183 29.5123C184.578 29.593 185.214 29.593 185.375 29.3913C185.001 28.5057 184.496 27.6817 183.877 26.9471C183.849 26.9101 183.827 26.8678 183.815 26.8225C183.803 26.7773 183.799 26.7301 183.805 26.6836C183.811 26.6371 183.827 26.5922 183.85 26.5516C183.873 26.511 183.904 26.4754 183.942 26.447C183.979 26.4186 184.022 26.3979 184.067 26.3862C184.113 26.3745 184.16 26.3719 184.206 26.3787C184.253 26.3854 184.297 26.4014 184.338 26.4256C184.378 26.4497 184.413 26.4817 184.441 26.5196C185.793 28.2862 186.292 29.4155 185.93 29.8753C185.765 30.0233 185.571 30.1355 185.36 30.2049C185.15 30.2743 184.927 30.2994 184.706 30.2786Z" fill="#231F20"/>
<path d="M183.926 33.0452H183.781C182.002 32.9484 180.665 31.2222 180.609 31.1496C180.58 31.1125 180.559 31.0702 180.547 31.025C180.535 30.9798 180.532 30.9326 180.538 30.8861C180.544 30.8397 180.559 30.7949 180.582 30.7543C180.605 30.7137 180.636 30.678 180.673 30.6494C180.71 30.6208 180.753 30.5998 180.798 30.5876C180.843 30.5753 180.89 30.5721 180.936 30.5781C180.983 30.5841 181.027 30.5992 181.068 30.6225C181.108 30.6458 181.144 30.6769 181.172 30.714C181.172 30.714 182.372 32.2547 183.813 32.3273C184.193 32.3321 184.569 32.2495 184.912 32.0859C185.256 31.9223 185.557 31.682 185.793 31.3835C185.861 31.3194 185.95 31.2836 186.043 31.2836C186.136 31.2836 186.225 31.3194 186.292 31.3835C186.326 31.4166 186.353 31.4561 186.371 31.4997C186.39 31.5434 186.399 31.5902 186.399 31.6376C186.399 31.685 186.39 31.7318 186.371 31.7755C186.353 31.8191 186.326 31.8586 186.292 31.8917C186.001 32.2402 185.64 32.523 185.232 32.7218C184.824 32.9206 184.379 33.0308 183.926 33.0452Z" fill="#231F20"/>
<path d="M186.566 108.057L180.681 132.047C180.681 132.047 209.991 122.214 211.046 119.004C212.101 115.793 195.888 119.488 195.888 119.488L197.039 112.631L186.566 108.057Z" fill="white"/>
<path d="M180.681 132.451C180.621 132.45 180.561 132.436 180.507 132.409C180.452 132.382 180.405 132.343 180.367 132.295C180.33 132.247 180.305 132.191 180.292 132.131C180.279 132.072 180.28 132.01 180.295 131.951L186.172 107.961C186.185 107.903 186.212 107.849 186.248 107.803C186.285 107.757 186.332 107.719 186.385 107.693C186.438 107.667 186.496 107.653 186.555 107.651C186.614 107.65 186.673 107.662 186.727 107.686L197.192 112.26C197.273 112.297 197.341 112.36 197.384 112.438C197.428 112.517 197.445 112.607 197.433 112.696L196.395 118.964C199.615 118.254 209.613 116.221 211.231 118.012C211.368 118.158 211.46 118.341 211.496 118.539C211.532 118.736 211.51 118.94 211.432 119.125C210.346 122.44 183.837 131.419 180.842 132.427C180.792 132.448 180.736 132.457 180.681 132.451ZM186.84 108.622L181.253 131.427C192.523 127.611 209.951 121.029 210.668 118.875C210.724 118.681 210.668 118.609 210.627 118.552C209.525 117.334 201.056 118.722 195.976 119.883C195.912 119.897 195.845 119.894 195.782 119.876C195.719 119.858 195.661 119.824 195.614 119.778C195.566 119.733 195.529 119.675 195.508 119.612C195.487 119.549 195.482 119.481 195.493 119.415L196.596 112.873L186.84 108.622Z" fill="#231F20"/>
<path d="M162.078 81.2276C162.078 81.2276 158.013 98.1676 166.038 100.467C174.064 102.766 187.492 93.5696 187.492 93.5696L183.145 109.308C183.145 109.308 180.231 116.414 184.457 116.1C188.265 111.155 193.465 109.848 197.039 112.631C202.634 106.412 212.455 86.8743 206.111 80.1709C199.768 73.4675 162.078 81.2276 162.078 81.2276Z" fill="#231F20"/>
<path d="M184.191 116.487C183.834 116.511 183.477 116.447 183.151 116.299C182.825 116.151 182.541 115.925 182.324 115.64C180.963 113.768 182.742 109.388 182.815 109.187L186.896 94.4084C183.861 96.3525 172.994 102.846 165.966 100.862C157.707 98.4982 161.587 81.897 161.756 81.1952C161.771 81.1293 161.805 81.0692 161.854 81.022C161.902 80.9749 161.963 80.9426 162.03 80.929C163.583 80.6064 199.993 73.2012 206.393 79.9772C212.793 86.7532 203.173 106.444 197.329 112.913C197.27 112.982 197.187 113.024 197.097 113.033C197.007 113.042 196.917 113.017 196.846 112.962C196.168 112.432 195.392 112.044 194.563 111.819C193.733 111.595 192.867 111.539 192.016 111.655C189.44 111.986 186.88 113.655 184.771 116.366C184.742 116.406 184.704 116.438 184.661 116.462C184.618 116.486 184.57 116.5 184.521 116.503L184.191 116.487ZM187.492 93.2387C187.568 93.2393 187.641 93.2648 187.701 93.3114C187.76 93.3524 187.806 93.411 187.83 93.479C187.855 93.5469 187.857 93.6209 187.838 93.6905L183.515 109.404C183.032 110.606 181.994 113.906 182.935 115.204C183.097 115.406 183.308 115.562 183.548 115.658C183.788 115.754 184.048 115.787 184.304 115.753C186.494 112.97 189.182 111.252 191.903 110.913C193.705 110.655 195.538 111.1 197.023 112.155C202.577 105.758 211.875 86.7612 205.878 80.4208C199.881 74.0804 165.523 80.9129 162.408 81.5421C161.973 83.5184 159.043 98.0949 166.167 100.095C173.927 102.314 187.194 93.3356 187.323 93.2468C187.376 93.2229 187.434 93.2119 187.492 93.2145V93.2387Z" fill="#231F20"/>
<path d="M180.681 132.048C180.681 132.048 183.901 135.21 193.078 132.048C202.255 128.885 213.847 120.407 211.046 119.004C208.245 117.6 183.789 127.619 180.681 132.048Z" fill="#231F20"/>
<path d="M185.777 133.814C182.05 133.814 180.528 132.386 180.44 132.297C180.378 132.239 180.34 132.161 180.331 132.076C180.322 131.992 180.344 131.907 180.392 131.838C183.451 127.49 207.931 117.035 211.207 118.681C211.406 118.772 211.573 118.922 211.684 119.111C211.795 119.3 211.845 119.519 211.827 119.738C211.634 122.529 201.193 129.619 193.199 132.386C190.82 133.267 188.313 133.75 185.777 133.814ZM181.189 131.983C182.098 132.588 185.536 134.274 192.966 131.709C201.016 128.926 210.966 121.964 211.118 119.689C211.127 119.61 211.108 119.531 211.066 119.463C211.023 119.396 210.96 119.345 210.885 119.318C208.47 118.1 185.012 127.49 181.189 131.983Z" fill="#231F20"/>
<path d="M197.2 117.963C195.082 118.751 193.029 119.704 191.058 120.811L191.388 117.1C191.388 117.1 196.145 114.785 197.2 114.922V117.963Z" fill="white"/>
<path d="M191.074 121.214C191.003 121.215 190.933 121.195 190.873 121.158C190.806 121.119 190.753 121.062 190.719 120.993C190.684 120.924 190.671 120.847 190.68 120.77L191.01 117.068C191.014 117 191.037 116.934 191.075 116.877C191.113 116.82 191.165 116.775 191.227 116.745C192.032 116.35 196.162 114.39 197.272 114.519C197.37 114.531 197.459 114.579 197.523 114.653C197.587 114.728 197.621 114.824 197.619 114.922V117.963C197.618 118.045 197.593 118.125 197.547 118.192C197.502 118.26 197.437 118.312 197.361 118.342C195.272 119.121 193.245 120.06 191.299 121.15C191.232 121.191 191.154 121.214 191.074 121.214ZM191.79 117.366L191.549 120.053C193.258 119.165 195.016 118.376 196.814 117.689V115.35C195.084 115.875 193.403 116.55 191.79 117.366Z" fill="#231F20"/>
<path d="M171.947 40.9346C171.947 40.9346 142.879 52.7603 140.415 56.0838C137.952 59.4072 133.726 79.5578 133.726 79.5578L142.508 78.2913C142.508 78.2913 150.454 65.788 152.917 63.1421C155.38 60.4962 169.299 56.7936 169.299 56.7936L171.947 40.9346Z" fill="#554AF0"/>
<path d="M147.29 72.5878L141.381 82.7196C141.381 82.7196 146.405 86.7529 145.181 87.4144C143.957 88.0758 142.766 88.6002 142.766 88.6002C142.766 88.6002 142.637 91.9156 141.156 92.3108C139.675 92.7061 131.407 91.972 131.778 89.1326C133.066 79.3396 134.668 68.1996 134.563 69.4741L147.29 72.5878Z" fill="white"/>
<path d="M139.997 92.8112C137.783 92.8112 133.806 92.2546 132.188 90.8348C131.92 90.6337 131.708 90.3655 131.575 90.0569C131.443 89.7483 131.393 89.4102 131.432 89.0763C131.971 84.922 132.639 80.0497 133.251 75.7179C133.79 71.9346 134.056 70.2568 134.209 69.5227C134.205 69.4933 134.205 69.4634 134.209 69.434C134.204 69.4525 134.204 69.4719 134.209 69.4904C134.346 68.9419 134.45 68.95 134.643 68.9742C134.701 68.9784 134.756 68.995 134.806 69.0229C134.856 69.0507 134.9 69.0892 134.933 69.1355L147.371 72.1928C147.431 72.2089 147.486 72.2383 147.534 72.2788C147.581 72.3192 147.619 72.3698 147.644 72.4267C147.672 72.4832 147.686 72.5453 147.686 72.6082C147.686 72.6711 147.672 72.7332 147.644 72.7897L141.897 82.6068C143.104 83.599 145.865 85.9948 145.761 87.1484C145.749 87.2749 145.707 87.3967 145.636 87.5024C145.566 87.6081 145.47 87.6944 145.358 87.7534C144.456 88.2374 143.579 88.6649 143.176 88.8504C143.112 89.7136 142.798 92.2788 141.317 92.6821C140.883 92.7764 140.44 92.8197 139.997 92.8112ZM134.909 69.9664C134.571 72.0879 133.299 80.808 132.228 89.1812C132.212 89.3836 132.249 89.5868 132.335 89.7707C132.421 89.9546 132.554 90.1128 132.72 90.2298C134.507 91.7948 139.965 92.2223 141.1 91.9158C142.058 91.6576 142.355 89.3667 142.388 88.5842C142.391 88.5106 142.415 88.4393 142.456 88.3781C142.497 88.317 142.554 88.2683 142.621 88.2374C142.621 88.2374 143.78 87.705 144.98 87.0596C145.028 86.6321 143.233 84.7284 141.124 83.0263C141.047 82.967 140.995 82.8817 140.977 82.7866C140.96 82.6914 140.977 82.593 141.027 82.51L146.662 72.83L134.909 69.9664Z" fill="#231F20"/>
<path d="M225.625 30.9319C225.625 30.5285 221.656 17.0007 221.656 17.0007L230.245 13.9838C230.245 13.9838 230.116 10.8055 231.96 9.61168C233.803 8.41781 236.323 9.61168 236.323 9.61168C236.323 9.61168 243.85 3.26321 244.776 4.58615C245.701 5.90908 242.924 8.82114 238.698 11.8461C238.698 11.8461 240.944 18.2027 238.432 20.1871C236.962 21.3665 235.179 22.0874 233.304 22.2602L225.625 30.9319Z" fill="white"/>
<path d="M225.625 31.3351C225.577 31.3428 225.528 31.3428 225.48 31.3351C225.407 31.3081 225.343 31.26 225.297 31.1968C225.251 31.1336 225.225 31.0583 225.222 30.9802C225.134 30.4156 222.807 22.4053 221.27 17.1378C221.243 17.0373 221.255 16.9304 221.302 16.838C221.35 16.7456 221.43 16.6742 221.527 16.6377L229.843 13.7175C229.843 12.8544 230.06 10.386 231.743 9.29702C233.425 8.20802 235.542 8.88561 236.251 9.16795C237.692 7.96601 242.795 3.79555 244.51 4.02948C244.628 4.04214 244.742 4.07957 244.845 4.13933C244.947 4.1991 245.036 4.27986 245.106 4.37635C246.442 6.28815 242.079 9.92622 239.173 12.0397C239.591 13.3545 241.097 18.6382 238.682 20.542C237.19 21.7338 235.393 22.4803 233.497 22.6957L225.922 31.2222C225.883 31.2604 225.836 31.29 225.785 31.3095C225.734 31.3289 225.679 31.3376 225.625 31.3351ZM222.155 17.2669C223.387 21.4938 225.23 27.8261 225.826 30.109L233.006 22.0423C233.08 21.9625 233.18 21.9135 233.288 21.9052C235.077 21.7325 236.777 21.0431 238.183 19.9208C240.058 18.4366 238.915 13.7256 238.319 12.0316C238.291 11.9496 238.29 11.8605 238.316 11.7776C238.342 11.6948 238.394 11.6226 238.464 11.5718C243.375 8.03861 245.001 5.64281 244.445 4.84421C243.874 4.49735 240.211 6.89315 236.581 9.95848C236.522 10.007 236.45 10.0374 236.374 10.046C236.299 10.0545 236.222 10.041 236.154 10.0069C236.154 10.0069 233.811 8.93401 232.177 10.0069C230.543 11.0797 230.648 13.9918 230.648 14.0402C230.651 14.1268 230.625 14.212 230.576 14.2832C230.527 14.3544 230.456 14.4078 230.374 14.4355L222.155 17.2669Z" fill="#231F20"/>
<path d="M192.652 70.8777H192.579C192.483 70.8582 192.399 70.8015 192.345 70.7199C192.29 70.6382 192.271 70.5384 192.289 70.4421C194.648 58.81 196.886 37.8931 196.773 36.8767C196.761 36.8311 196.758 36.7836 196.765 36.737C196.771 36.6903 196.787 36.6453 196.811 36.6048C196.835 36.5642 196.867 36.5289 196.905 36.5008C196.942 36.4727 196.985 36.4524 197.031 36.4411C197.128 36.4167 197.231 36.4318 197.317 36.4832C197.403 36.5346 197.465 36.6181 197.49 36.7154C197.691 37.4656 195.373 58.9471 193.014 70.5954C192.993 70.6757 192.946 70.7469 192.88 70.7979C192.815 70.8489 192.735 70.8769 192.652 70.8777Z" fill="#231F20"/>
<path d="M155.533 61.2301C155.448 61.2277 155.365 61.1955 155.301 61.1391C155.236 61.0827 155.193 61.0056 155.178 60.9208C155.164 60.8361 155.18 60.749 155.222 60.6745C155.265 60.6 155.332 60.5426 155.412 60.5121L171.826 55.1075C171.917 55.0851 172.012 55.0977 172.094 55.1428C172.175 55.1878 172.237 55.2619 172.266 55.3504C172.296 55.4389 172.291 55.5353 172.253 55.6203C172.214 55.7053 172.146 55.7728 172.06 55.8093L155.646 61.2139C155.61 61.2267 155.572 61.2322 155.533 61.2301Z" fill="#231F20"/>
<path d="M236.476 18.0737C236.406 18.0814 236.336 18.0814 236.267 18.0737C235.644 17.9383 235.067 17.6446 234.59 17.2207C234.113 16.7969 233.754 16.2572 233.546 15.6537C233.489 16.1847 233.28 16.6879 232.944 17.1028C232.609 17.5178 232.161 17.8269 231.654 17.993C231.608 18.0083 231.559 18.014 231.511 18.0097C231.463 18.0054 231.416 17.9911 231.373 17.9679C231.33 17.9447 231.293 17.9129 231.263 17.8746C231.233 17.8362 231.212 17.7922 231.2 17.7451C231.187 17.698 231.185 17.649 231.193 17.6009C231.2 17.5529 231.217 17.5069 231.243 17.4659C231.269 17.4248 231.304 17.3896 231.344 17.3623C231.384 17.3351 231.429 17.3163 231.477 17.3073C233.272 16.8395 232.958 13.7015 232.95 13.6693C232.941 13.5754 232.969 13.4817 233.027 13.4079C233.086 13.3342 233.171 13.2861 233.264 13.274C233.356 13.2666 233.448 13.294 233.521 13.3507C233.594 13.4074 233.643 13.4894 233.658 13.5805C233.658 13.5805 234.158 16.9685 236.371 17.2993C236.445 17.3189 236.523 17.3172 236.595 17.2943C236.668 17.2715 236.733 17.2284 236.782 17.1702C237.587 16.2829 236.701 12.1124 235.977 9.70048C235.949 9.61063 235.958 9.51344 236.002 9.43025C236.046 9.34707 236.121 9.28469 236.21 9.25681C236.255 9.24324 236.302 9.23874 236.349 9.24359C236.396 9.24843 236.441 9.26252 236.482 9.28504C236.523 9.30755 236.56 9.33805 236.589 9.37474C236.618 9.41144 236.64 9.45362 236.653 9.49882C236.854 10.1764 238.585 16.1619 237.305 17.6381C237.209 17.7689 237.084 17.876 236.941 17.9515C236.797 18.027 236.638 18.0687 236.476 18.0737Z" fill="#231F20"/>
<path d="M54.9404 128.095C53.7329 125.675 41.9477 105.355 40.1365 92.3354C40.1365 92.3354 39.9272 117.705 50.4566 130.765C60.986 143.825 54.9404 128.095 54.9404 128.095Z" fill="#D1D3D4"/>
<path d="M178.556 25.6724L174.499 27.4228V28.3102L179.981 26.6968L178.556 25.6724Z" fill="#231F20"/>
<path d="M174.499 28.6652C174.421 28.6658 174.344 28.6403 174.282 28.5926C174.238 28.5597 174.203 28.5169 174.18 28.4679C174.156 28.4188 174.144 28.3648 174.145 28.3103V27.423C174.144 27.3534 174.163 27.2849 174.2 27.2261C174.237 27.1673 174.291 27.1207 174.354 27.0922L178.379 25.3418C178.435 25.318 178.497 25.3093 178.558 25.3163C178.618 25.3234 178.676 25.3461 178.725 25.3821L180.15 26.4146C180.203 26.454 180.244 26.5074 180.268 26.5686C180.292 26.6299 180.299 26.6967 180.287 26.7615C180.277 26.8277 180.248 26.8895 180.204 26.9396C180.16 26.9897 180.102 27.0259 180.037 27.0438L174.555 28.6572L174.499 28.6652ZM174.853 27.6569V27.8344L179.184 26.5598L178.516 26.0758L174.853 27.6569Z" fill="#231F20"/>
<path d="M177.228 29.0523C176.616 28.2941 175.618 26.9066 174.499 27.439C174.194 27.5827 173.933 27.8055 173.742 28.0843C173.366 28.6565 173.171 29.3291 173.183 30.0142C173.194 30.6992 173.412 31.3649 173.807 31.9241C174.41 32.9566 176.222 34.457 177.268 33.0453" fill="white"/>
<path d="M176.198 33.9727H176.093C175.551 33.8642 175.037 33.6411 174.588 33.3184C174.138 32.9958 173.762 32.5808 173.485 32.1013C173.057 31.4738 172.828 30.7316 172.828 29.9717C172.828 29.2117 173.057 28.4695 173.485 27.8421C173.713 27.514 174.024 27.2524 174.386 27.0838C175.707 26.4949 176.801 27.834 177.405 28.6326L177.55 28.8181C177.611 28.8948 177.64 28.9923 177.631 29.0901C177.622 29.1879 177.576 29.2783 177.502 29.3425C177.464 29.3734 177.42 29.3965 177.373 29.4104C177.326 29.4244 177.277 29.4288 177.228 29.4236C177.18 29.4183 177.133 29.4035 177.09 29.3798C177.047 29.3562 177.009 29.3243 176.978 29.286L176.825 29.0924C176.117 28.197 175.417 27.4307 174.684 27.7533C174.438 27.8756 174.228 28.0589 174.072 28.2857C173.742 28.8014 173.573 29.4048 173.589 30.0176C173.605 30.6304 173.804 31.2242 174.161 31.7221C174.373 32.0998 174.662 32.429 175.009 32.6887C175.355 32.9484 175.752 33.133 176.173 33.2306C176.332 33.2312 176.489 33.1925 176.629 33.1179C176.77 33.0433 176.89 32.9352 176.978 32.8031C177.039 32.7267 177.126 32.6772 177.223 32.6651C177.319 32.6531 177.416 32.6794 177.494 32.7385C177.532 32.7678 177.565 32.8045 177.589 32.8465C177.613 32.8885 177.629 32.9349 177.635 32.983C177.641 33.0312 177.637 33.08 177.624 33.1267C177.611 33.1733 177.588 33.2169 177.558 33.2548C177.405 33.4742 177.201 33.6537 176.964 33.7786C176.728 33.9034 176.465 33.97 176.198 33.9727Z" fill="#231F20"/>
<path d="M181.207 27.305C182.56 27.1608 183.567 26.2 183.457 25.1589C183.346 24.1178 182.16 23.3907 180.807 23.5349C179.455 23.679 178.447 24.6399 178.558 25.6809C178.668 26.722 179.855 27.4491 181.207 27.305Z" fill="white"/>
<path d="M180.875 27.6891C180.264 27.7425 179.656 27.5713 179.162 27.2075C178.669 26.8438 178.325 26.3124 178.194 25.7128C178.057 24.4705 179.216 23.2928 180.77 23.1556C181.471 23.0743 182.179 23.2214 182.791 23.5751C183.071 23.7313 183.31 23.9515 183.489 24.2179C183.668 24.4842 183.782 24.7891 183.821 25.1078C183.958 26.35 182.799 27.5278 181.245 27.6649C181.122 27.681 180.998 27.6891 180.875 27.6891ZM181.148 23.8736H180.842C179.699 23.9946 178.838 24.777 178.927 25.616C179.015 26.4549 180.013 27.0357 181.172 26.9147C182.332 26.7937 183.185 26.0112 183.096 25.1723C183.063 24.9663 182.984 24.7706 182.864 24.6C182.744 24.4295 182.587 24.2886 182.404 24.1882C182.022 23.9707 181.588 23.862 181.148 23.8736Z" fill="#231F20"/>
<path d="M186.249 27.0628C187.602 26.9186 188.609 25.9578 188.499 24.9167C188.388 23.8756 187.202 23.1485 185.849 23.2927C184.496 23.4368 183.489 24.3977 183.6 25.4387C183.71 26.4798 184.896 27.2069 186.249 27.0628Z" fill="white"/>
<path d="M185.93 27.4469C185.32 27.5003 184.711 27.3291 184.218 26.9654C183.724 26.6016 183.38 26.0702 183.249 25.4706C183.121 24.2283 184.28 23.0506 185.825 22.9135C187.371 22.7763 188.756 23.6233 188.884 24.8656C189.013 26.1079 187.862 27.2856 186.308 27.4147L185.93 27.4469ZM186.212 23.6314H185.906C184.755 23.7524 183.893 24.5349 183.982 25.3738C184.07 26.2127 185.085 26.7935 186.228 26.6725C187.371 26.5515 188.24 25.7691 188.152 24.9301C188.037 24.5136 187.776 24.1527 187.416 23.914C187.057 23.6753 186.623 23.5749 186.196 23.6314H186.212Z" fill="#231F20"/>
<path d="M85.0796 112.986C87.1292 112.986 88.7907 111.321 88.7907 109.267C88.7907 107.213 87.1292 105.548 85.0796 105.548C83.0301 105.548 81.3686 107.213 81.3686 109.267C81.3686 111.321 83.0301 112.986 85.0796 112.986Z" fill="white"/>
<path d="M85.0796 113.389C84.2641 113.391 83.4665 113.15 82.7876 112.697C82.1088 112.244 81.5792 111.6 81.266 110.845C80.9528 110.091 80.8701 109.26 81.0282 108.458C81.1863 107.657 81.5782 106.92 82.1543 106.341C82.7304 105.763 83.4648 105.369 84.2645 105.209C85.0643 105.049 85.8934 105.13 86.647 105.443C87.4006 105.755 88.0448 106.284 88.498 106.964C88.9512 107.643 89.1932 108.442 89.1932 109.259C89.1932 110.353 88.7601 111.402 87.9888 112.177C87.2176 112.951 86.1714 113.387 85.0796 113.389ZM85.0796 105.944C84.423 105.942 83.7806 106.136 83.234 106.5C82.6874 106.865 82.261 107.384 82.009 107.992C81.757 108.599 81.6906 109.268 81.8183 109.913C81.946 110.559 82.2621 111.152 82.7264 111.617C83.1907 112.082 83.7824 112.399 84.4265 112.527C85.0706 112.655 85.7382 112.589 86.3445 112.336C86.9509 112.083 87.4688 111.656 87.8326 111.108C88.1964 110.561 88.3898 109.917 88.3882 109.259C88.3861 108.38 88.0368 107.538 87.4168 106.917C86.7968 106.296 85.9565 105.946 85.0796 105.944Z" fill="#D1D3D4"/>
<path d="M224.932 65.3684C225.959 65.3684 226.792 64.5341 226.792 63.505C226.792 62.4759 225.959 61.6416 224.932 61.6416C223.905 61.6416 223.073 62.4759 223.073 63.505C223.073 64.5341 223.905 65.3684 224.932 65.3684Z" fill="white"/>
<path d="M224.932 65.7717C224.485 65.7733 224.046 65.6417 223.673 65.3936C223.3 65.1455 223.009 64.7921 222.837 64.378C222.664 63.964 222.618 63.508 222.705 63.0677C222.791 62.6275 223.006 62.2229 223.322 61.9051C223.638 61.5872 224.041 61.3706 224.48 61.2824C224.919 61.1943 225.374 61.2387 225.788 61.41C226.202 61.5814 226.556 61.8719 226.804 62.2448C227.053 62.6178 227.186 63.0563 227.186 63.505C227.186 64.1048 226.949 64.6801 226.527 65.105C226.104 65.5298 225.531 65.7696 224.932 65.7717ZM224.932 62.0449C224.644 62.0433 224.361 62.1276 224.121 62.2871C223.88 62.4465 223.692 62.674 223.58 62.9406C223.469 63.2073 223.439 63.5011 223.494 63.7849C223.55 64.0686 223.688 64.3295 223.891 64.5345C224.095 64.7395 224.354 64.8794 224.637 64.9364C224.92 64.9934 225.213 64.9649 225.48 64.8547C225.747 64.7444 225.975 64.5573 226.135 64.317C226.296 64.0767 226.381 63.7941 226.381 63.505C226.381 63.1192 226.229 62.749 225.957 62.4754C225.686 62.2018 225.317 62.0471 224.932 62.0449Z" fill="#D1D3D4"/>
<path d="M251.248 59.1811C253.297 59.1811 254.959 57.5162 254.959 55.4624C254.959 53.4086 253.297 51.7437 251.248 51.7437C249.198 51.7437 247.537 53.4086 247.537 55.4624C247.537 57.5162 249.198 59.1811 251.248 59.1811Z" fill="#D1D3D4"/>
<path d="M257.398 193.596C268.944 193.596 278.304 184.217 278.304 172.647C278.304 161.077 268.944 151.698 257.398 151.698C245.852 151.698 236.492 161.077 236.492 172.647C236.492 184.217 245.852 193.596 257.398 193.596Z" fill="white"/>
<path d="M257.406 193.999C253.435 193.999 249.543 192.887 246.17 190.789C242.796 188.691 240.074 185.69 238.312 182.124C236.55 178.559 235.816 174.57 236.195 170.61C236.574 166.649 238.05 162.873 240.456 159.708C242.862 156.542 246.103 154.114 249.813 152.696C253.524 151.278 257.555 150.927 261.454 151.683C265.352 152.439 268.962 154.271 271.877 156.973C274.792 159.675 276.895 163.14 277.95 166.976C278.819 170.146 278.947 173.474 278.323 176.701C277.699 179.929 276.34 182.968 274.353 185.583C272.365 188.198 269.801 190.318 266.862 191.778C263.922 193.238 260.687 193.998 257.406 193.999ZM257.406 152.093C253.114 152.092 248.93 153.44 245.443 155.947C241.956 158.454 239.341 161.994 237.968 166.069C236.594 170.143 236.531 174.547 237.786 178.66C239.042 182.772 241.553 186.387 244.966 188.994C248.38 191.601 252.523 193.069 256.813 193.192C261.103 193.315 265.324 192.087 268.881 189.68C272.437 187.273 275.151 183.808 276.639 179.774C278.127 175.741 278.315 171.34 277.177 167.194C275.98 162.856 273.398 159.032 269.826 156.304C266.254 153.577 261.889 152.098 257.398 152.093H257.406Z" fill="#D1D3D4"/>
<path d="M232.226 184.11C228.49 184.11 225.109 183.569 224.594 181.69C223.765 178.6 231.582 174.567 236.339 172.421C236.437 172.378 236.548 172.376 236.648 172.416C236.748 172.455 236.828 172.532 236.87 172.631C236.913 172.729 236.915 172.84 236.876 172.94C236.837 173.04 236.759 173.12 236.661 173.163C227.742 177.14 224.981 180.06 225.391 181.472C225.802 182.883 229.65 183.989 239.334 182.827C252.689 181.024 265.742 177.431 278.143 172.147C287.054 168.186 289.815 165.258 289.413 163.838C289.01 162.418 285.162 161.329 275.47 162.491C275.363 162.504 275.256 162.474 275.171 162.407C275.087 162.34 275.032 162.243 275.019 162.136C275.007 162.029 275.037 161.921 275.103 161.837C275.17 161.752 275.267 161.697 275.374 161.684C280.542 161.063 289.332 160.498 290.186 163.62C291.039 166.742 283.206 170.767 278.457 172.873C265.978 178.211 252.837 181.836 239.39 183.65C237.013 183.941 234.621 184.094 232.226 184.11Z" fill="#D1D3D4"/>
<path d="M214.91 167.138C214.803 167.138 214.701 167.095 214.625 167.019C214.55 166.944 214.508 166.841 214.508 166.734V161.983C214.508 161.876 214.55 161.773 214.625 161.698C214.701 161.622 214.803 161.58 214.91 161.58C215.017 161.58 215.119 161.622 215.195 161.698C215.27 161.773 215.313 161.876 215.313 161.983V166.734C215.313 166.841 215.27 166.944 215.195 167.019C215.119 167.095 215.017 167.138 214.91 167.138Z" fill="#D1D3D4"/>
<path d="M217.325 164.758H212.584C212.477 164.758 212.374 164.715 212.299 164.64C212.223 164.564 212.181 164.461 212.181 164.355C212.183 164.248 212.226 164.147 212.301 164.072C212.376 163.996 212.477 163.953 212.584 163.951H217.325C217.432 163.951 217.534 163.994 217.61 164.069C217.685 164.145 217.728 164.248 217.728 164.355C217.728 164.461 217.685 164.564 217.61 164.64C217.534 164.715 217.432 164.758 217.325 164.758Z" fill="#D1D3D4"/>
<path d="M269.779 70.91C269.672 70.91 269.57 70.8675 269.494 70.7919C269.419 70.7162 269.376 70.6136 269.376 70.5067V65.7554C269.376 65.6484 269.419 65.5458 269.494 65.4702C269.57 65.3945 269.672 65.3521 269.779 65.3521C269.886 65.3521 269.988 65.3945 270.063 65.4702C270.139 65.5458 270.181 65.6484 270.181 65.7554V70.5067C270.181 70.6136 270.139 70.7162 270.063 70.7919C269.988 70.8675 269.886 70.91 269.779 70.91Z" fill="#D1D3D4"/>
<path d="M272.154 68.5386H267.412C267.305 68.5386 267.203 68.4961 267.128 68.4205C267.052 68.3448 267.01 68.2422 267.01 68.1353C267.01 68.0283 267.052 67.9257 267.128 67.8501C267.203 67.7744 267.305 67.7319 267.412 67.7319H272.154C272.26 67.7319 272.363 67.7744 272.438 67.8501C272.514 67.9257 272.556 68.0283 272.556 68.1353C272.554 68.2416 272.511 68.343 272.436 68.4182C272.361 68.4934 272.26 68.5365 272.154 68.5386Z" fill="#D1D3D4"/>
<path d="M69.8571 175.059C69.7503 175.059 69.648 175.016 69.5725 174.941C69.497 174.865 69.4546 174.763 69.4546 174.656V169.904C69.4546 169.797 69.497 169.695 69.5725 169.619C69.648 169.543 69.7503 169.501 69.8571 169.501C69.9638 169.501 70.0662 169.543 70.1417 169.619C70.2172 169.695 70.2596 169.797 70.2596 169.904V174.656C70.2596 174.763 70.2172 174.865 70.1417 174.941C70.0662 175.016 69.9638 175.059 69.8571 175.059Z" fill="#D1D3D4"/>
<path d="M72.2238 172.688H67.4823C67.3762 172.685 67.275 172.642 67.2 172.567C67.125 172.492 67.0819 172.391 67.0798 172.284C67.0798 172.177 67.1222 172.075 67.1977 171.999C67.2732 171.923 67.3756 171.881 67.4823 171.881H72.2238C72.3305 171.881 72.4329 171.923 72.5084 171.999C72.5839 172.075 72.6263 172.177 72.6263 172.284C72.6263 172.391 72.5839 172.494 72.5084 172.569C72.4329 172.645 72.3305 172.688 72.2238 172.688Z" fill="#D1D3D4"/>
<path d="M117.65 73.2899C117.543 73.2899 117.441 73.2474 117.365 73.1717C117.29 73.0961 117.247 72.9935 117.247 72.8865V68.1353C117.247 68.0283 117.29 67.9257 117.365 67.8501C117.441 67.7744 117.543 67.7319 117.65 67.7319C117.757 67.7319 117.859 67.7744 117.935 67.8501C118.01 67.9257 118.052 68.0283 118.052 68.1353V72.9269C118.042 73.0267 117.996 73.1192 117.921 73.1863C117.847 73.2535 117.75 73.2904 117.65 73.2899Z" fill="#D1D3D4"/>
<path d="M120.017 70.9102H115.275C115.168 70.9102 115.066 70.8677 114.991 70.792C114.915 70.7164 114.873 70.6138 114.873 70.5068C114.873 70.3999 114.915 70.2973 114.991 70.2216C115.066 70.146 115.168 70.1035 115.275 70.1035H120.017C120.123 70.1035 120.226 70.146 120.301 70.2216C120.377 70.2973 120.419 70.3999 120.419 70.5068C120.419 70.6138 120.377 70.7164 120.301 70.792C120.226 70.8677 120.123 70.9102 120.017 70.9102Z" fill="#D1D3D4"/>
</g>
<defs>
<clipPath id="clip0_206_4916">
<rect width="330" height="207" fill="white" transform="translate(0.5)"/>
</clipPath>
</defs>
</svg>
